<mxfile host="app.diagrams.net" modified="2023-02-28T10:56:30.589Z" agent="5.0 (Windows NT 10.0; Win64; x64) AppleWebKit/537.36 (KHTML, like Gecko) Chrome/108.0.0.0 Safari/537.36" etag="UGSzKYoGi3vZOyHBdtjl" version="20.8.23" type="github">
  <diagram name="第 1 页" id="COKl8f5033-fmBuwGrOy">
    <mxGraphModel dx="2868" dy="3930" grid="1" gridSize="10" guides="1" tooltips="1" connect="1" arrows="1" fold="1" page="1" pageScale="1" pageWidth="827" pageHeight="1169" math="0" shadow="0">
      <root>
        <mxCell id="0" />
        <mxCell id="1" parent="0" />
        <mxCell id="r3yZTHQa6Xh4HX3n6qDW-1" value="" style="rounded=0;whiteSpace=wrap;html=1;" vertex="1" parent="1">
          <mxGeometry x="1570" y="-1450" width="1134.75" height="955.75" as="geometry" />
        </mxCell>
        <mxCell id="r3yZTHQa6Xh4HX3n6qDW-2" value="" style="rounded=0;whiteSpace=wrap;html=1;" vertex="1" parent="1">
          <mxGeometry x="200" y="-1430" width="1115" height="830" as="geometry" />
        </mxCell>
        <mxCell id="r3yZTHQa6Xh4HX3n6qDW-3" value="" style="rounded=0;whiteSpace=wrap;html=1;dashed=1;" vertex="1" parent="1">
          <mxGeometry x="1734.75" y="-878.25" width="800" height="150" as="geometry" />
        </mxCell>
        <mxCell id="r3yZTHQa6Xh4HX3n6qDW-4" value="" style="rounded=0;whiteSpace=wrap;html=1;" vertex="1" parent="1">
          <mxGeometry x="2012.15" y="-869.88" width="512.6" height="91.63" as="geometry" />
        </mxCell>
        <mxCell id="r3yZTHQa6Xh4HX3n6qDW-5" value="" style="rounded=0;whiteSpace=wrap;html=1;" vertex="1" parent="1">
          <mxGeometry x="1749.25" y="-869.88" width="255.5" height="91.63" as="geometry" />
        </mxCell>
        <mxCell id="r3yZTHQa6Xh4HX3n6qDW-6" value="" style="rounded=0;whiteSpace=wrap;html=1;dashed=1;" vertex="1" parent="1">
          <mxGeometry x="2411.15" y="-988.25" width="123.6" height="100" as="geometry" />
        </mxCell>
        <mxCell id="r3yZTHQa6Xh4HX3n6qDW-7" value="" style="rounded=0;whiteSpace=wrap;html=1;dashed=1;" vertex="1" parent="1">
          <mxGeometry x="1734.75" y="-988.25" width="642.75" height="100" as="geometry" />
        </mxCell>
        <mxCell id="r3yZTHQa6Xh4HX3n6qDW-8" value="" style="rounded=1;whiteSpace=wrap;html=1;dashed=1;" vertex="1" parent="1">
          <mxGeometry x="2553.75" y="-1231.25" width="120" height="560" as="geometry" />
        </mxCell>
        <mxCell id="r3yZTHQa6Xh4HX3n6qDW-9" style="edgeStyle=orthogonalEdgeStyle;rounded=0;orthogonalLoop=1;jettySize=auto;html=1;entryX=0.5;entryY=0;entryDx=0;entryDy=0;" edge="1" parent="1" source="r3yZTHQa6Xh4HX3n6qDW-10" target="r3yZTHQa6Xh4HX3n6qDW-20">
          <mxGeometry relative="1" as="geometry" />
        </mxCell>
        <mxCell id="r3yZTHQa6Xh4HX3n6qDW-10" value="" style="rounded=0;whiteSpace=wrap;html=1;dashed=1;" vertex="1" parent="1">
          <mxGeometry x="1734.75" y="-1231.25" width="800" height="150" as="geometry" />
        </mxCell>
        <mxCell id="r3yZTHQa6Xh4HX3n6qDW-11" value="" style="rounded=1;whiteSpace=wrap;html=1;dashed=1;" vertex="1" parent="1">
          <mxGeometry x="1604.75" y="-1228.25" width="105" height="720" as="geometry" />
        </mxCell>
        <mxCell id="r3yZTHQa6Xh4HX3n6qDW-12" value="客户" style="pointerEvents=1;shadow=0;dashed=0;html=1;strokeColor=none;labelPosition=center;verticalLabelPosition=bottom;verticalAlign=top;align=center;fillColor=#505050;shape=mxgraph.mscae.intune.account_portal" vertex="1" parent="1">
          <mxGeometry x="1793.5" y="-1331.25" width="53" height="50" as="geometry" />
        </mxCell>
        <mxCell id="r3yZTHQa6Xh4HX3n6qDW-13" value="移动端" style="aspect=fixed;html=1;points=[];align=center;image;fontSize=12;image=img/lib/mscae/Devices_Groups.svg;" vertex="1" parent="1">
          <mxGeometry x="1795.75" y="-1219.75" width="27" height="27" as="geometry" />
        </mxCell>
        <mxCell id="r3yZTHQa6Xh4HX3n6qDW-14" value="小程序" style="aspect=fixed;html=1;points=[];align=center;image;fontSize=12;image=img/lib/mscae/Policy.svg;" vertex="1" parent="1">
          <mxGeometry x="2089.6" y="-1221.25" width="33.3" height="37" as="geometry" />
        </mxCell>
        <mxCell id="r3yZTHQa6Xh4HX3n6qDW-15" value="PC端" style="aspect=fixed;html=1;points=[];align=center;image;fontSize=12;image=img/lib/mscae/Managed_Desktop.svg;" vertex="1" parent="1">
          <mxGeometry x="1944.25" y="-1219.75" width="41.67" height="30" as="geometry" />
        </mxCell>
        <mxCell id="r3yZTHQa6Xh4HX3n6qDW-16" value="员工" style="aspect=fixed;pointerEvents=1;shadow=0;dashed=0;html=1;strokeColor=#0e8088;labelPosition=center;verticalLabelPosition=bottom;verticalAlign=top;align=center;fillColor=#b0e3e6;shape=mxgraph.azure.user" vertex="1" parent="1">
          <mxGeometry x="2080.2" y="-1331.25" width="53" height="50" as="geometry" />
        </mxCell>
        <mxCell id="r3yZTHQa6Xh4HX3n6qDW-17" value="技术" style="aspect=fixed;pointerEvents=1;shadow=0;dashed=0;html=1;strokeColor=#10739e;labelPosition=center;verticalLabelPosition=bottom;verticalAlign=top;align=center;fillColor=#b1ddf0;shape=mxgraph.azure.user" vertex="1" parent="1">
          <mxGeometry x="1945.92" y="-1331.25" width="53" height="50" as="geometry" />
        </mxCell>
        <mxCell id="r3yZTHQa6Xh4HX3n6qDW-18" value="管理" style="aspect=fixed;pointerEvents=1;shadow=0;dashed=0;html=1;strokeColor=#ae4132;labelPosition=center;verticalLabelPosition=bottom;verticalAlign=top;align=center;fillColor=#fad9d5;shape=mxgraph.azure.user" vertex="1" parent="1">
          <mxGeometry x="2216.5" y="-1331.25" width="53" height="50" as="geometry" />
        </mxCell>
        <mxCell id="r3yZTHQa6Xh4HX3n6qDW-19" value="数据大屏" style="aspect=fixed;html=1;points=[];align=center;image;fontSize=12;image=img/lib/mscae/Machine_Learning_Studio_Web_Service_Plans.svg;" vertex="1" parent="1">
          <mxGeometry x="2227" y="-1223.25" width="37" height="37" as="geometry" />
        </mxCell>
        <mxCell id="r3yZTHQa6Xh4HX3n6qDW-20" value="" style="rounded=0;whiteSpace=wrap;html=1;dashed=1;" vertex="1" parent="1">
          <mxGeometry x="1734.75" y="-1063.25" width="800" height="60" as="geometry" />
        </mxCell>
        <mxCell id="r3yZTHQa6Xh4HX3n6qDW-21" value="基础层" style="rounded=1;whiteSpace=wrap;html=1;fillColor=#b0e3e6;strokeColor=#0e8088;" vertex="1" parent="1">
          <mxGeometry x="1617.25" y="-584" width="80" height="30" as="geometry" />
        </mxCell>
        <mxCell id="r3yZTHQa6Xh4HX3n6qDW-22" value="Nginx&lt;br&gt;反向代理" style="rounded=1;whiteSpace=wrap;html=1;fillColor=#dae8fc;strokeColor=#6c8ebf;" vertex="1" parent="1">
          <mxGeometry x="1837.25" y="-1048.75" width="100" height="30" as="geometry" />
        </mxCell>
        <mxCell id="r3yZTHQa6Xh4HX3n6qDW-23" value="&lt;div class=&quot;mind-clipboard&quot;&gt;&lt;/div&gt;&lt;span&gt;GateWay&amp;nbsp;&lt;br&gt;&lt;/span&gt;统一认证" style="rounded=1;whiteSpace=wrap;html=1;fillColor=#dae8fc;strokeColor=#6c8ebf;" vertex="1" parent="1">
          <mxGeometry x="2379.9" y="-1051.25" width="80" height="32.5" as="geometry" />
        </mxCell>
        <mxCell id="r3yZTHQa6Xh4HX3n6qDW-24" value="&lt;span style=&quot;color: rgb(50 , 50 , 50) ; font-size: 13px ; background-color: rgba(255 , 255 , 255 , 0.01)&quot;&gt;Sentiel&lt;br&gt;&lt;/span&gt;熔断限流" style="rounded=1;whiteSpace=wrap;html=1;fillColor=#d5e8d4;strokeColor=#82b366;" vertex="1" parent="1">
          <mxGeometry x="2574.75" y="-909.5" width="85" height="40" as="geometry" />
        </mxCell>
        <mxCell id="r3yZTHQa6Xh4HX3n6qDW-25" value="&lt;div class=&quot;mind-clipboard&quot;&gt;&lt;br&gt;&lt;/div&gt;" style="text;whiteSpace=wrap;html=1;" vertex="1" parent="1">
          <mxGeometry x="1967.25" y="-978.25" width="70" height="40" as="geometry" />
        </mxCell>
        <mxCell id="r3yZTHQa6Xh4HX3n6qDW-26" value="&lt;span style=&quot;text-align: left&quot;&gt;负载均衡&lt;/span&gt;&lt;br style=&quot;text-align: left&quot;&gt;&lt;span style=&quot;text-align: left&quot;&gt;Ribbon&lt;/span&gt;" style="rounded=1;whiteSpace=wrap;html=1;fillColor=#d5e8d4;strokeColor=#82b366;" vertex="1" parent="1">
          <mxGeometry x="2574.75" y="-849.37" width="85" height="40" as="geometry" />
        </mxCell>
        <mxCell id="r3yZTHQa6Xh4HX3n6qDW-27" value="HR&lt;br&gt;人力资源" style="rounded=1;whiteSpace=wrap;html=1;fillColor=#dae8fc;strokeColor=#6c8ebf;" vertex="1" parent="1">
          <mxGeometry x="1835.25" y="-980.75" width="90" height="34" as="geometry" />
        </mxCell>
        <mxCell id="r3yZTHQa6Xh4HX3n6qDW-28" value="&lt;div style=&quot;&quot;&gt;&lt;span&gt;ERP&lt;br&gt;&lt;/span&gt;&lt;span&gt;&lt;font color=&quot;#333333&quot; face=&quot;Arial, sans-serif&quot;&gt;&lt;span style=&quot;font-size: 13px&quot;&gt;企业资源&lt;/span&gt;&lt;/font&gt;&lt;br&gt;&lt;/span&gt;&lt;/div&gt;" style="rounded=1;whiteSpace=wrap;html=1;fillColor=#dae8fc;strokeColor=#6c8ebf;align=center;" vertex="1" parent="1">
          <mxGeometry x="1966" y="-980.75" width="90" height="34" as="geometry" />
        </mxCell>
        <mxCell id="r3yZTHQa6Xh4HX3n6qDW-29" value="&lt;div style=&quot;text-align: left&quot;&gt;标书资料&lt;/div&gt;" style="rounded=1;whiteSpace=wrap;html=1;fillColor=#dae8fc;strokeColor=#6c8ebf;" vertex="1" parent="1">
          <mxGeometry x="1967.25" y="-932.25" width="90" height="34" as="geometry" />
        </mxCell>
        <mxCell id="r3yZTHQa6Xh4HX3n6qDW-30" value="&lt;div style=&quot;text-align: left&quot;&gt;回款认领&lt;/div&gt;" style="rounded=1;whiteSpace=wrap;html=1;fillColor=#dae8fc;strokeColor=#6c8ebf;" vertex="1" parent="1">
          <mxGeometry x="2119.87" y="-978.25" width="90" height="34" as="geometry" />
        </mxCell>
        <mxCell id="r3yZTHQa6Xh4HX3n6qDW-31" value="学习考试" style="rounded=1;whiteSpace=wrap;html=1;fillColor=#dae8fc;strokeColor=#6c8ebf;" vertex="1" parent="1">
          <mxGeometry x="2119.87" y="-933.25" width="90" height="34" as="geometry" />
        </mxCell>
        <mxCell id="r3yZTHQa6Xh4HX3n6qDW-32" value="标书备案管理后台" style="rounded=1;whiteSpace=wrap;html=1;fillColor=#ffe6cc;strokeColor=#d79b00;" vertex="1" parent="1">
          <mxGeometry x="1918.75" y="-1161.25" width="100" height="30" as="geometry" />
        </mxCell>
        <mxCell id="r3yZTHQa6Xh4HX3n6qDW-33" value="税务共享管理平台" style="rounded=1;whiteSpace=wrap;html=1;fillColor=#ffe6cc;strokeColor=#d79b00;" vertex="1" parent="1">
          <mxGeometry x="1918.75" y="-1121.25" width="100" height="30" as="geometry" />
        </mxCell>
        <mxCell id="r3yZTHQa6Xh4HX3n6qDW-34" value="员工APP" style="rounded=1;whiteSpace=wrap;html=1;fillColor=#ffe6cc;strokeColor=#d79b00;" vertex="1" parent="1">
          <mxGeometry x="1762" y="-1162.75" width="100" height="30" as="geometry" />
        </mxCell>
        <mxCell id="r3yZTHQa6Xh4HX3n6qDW-35" value="视频拓客小程序" style="rounded=1;whiteSpace=wrap;html=1;fillColor=#ffe6cc;strokeColor=#d79b00;" vertex="1" parent="1">
          <mxGeometry x="2052.9" y="-1121.25" width="100" height="30" as="geometry" />
        </mxCell>
        <mxCell id="r3yZTHQa6Xh4HX3n6qDW-36" value="业务全流程" style="rounded=1;whiteSpace=wrap;html=1;fillColor=#ffe6cc;strokeColor=#d79b00;" vertex="1" parent="1">
          <mxGeometry x="2054" y="-1158.75" width="100" height="30" as="geometry" />
        </mxCell>
        <mxCell id="r3yZTHQa6Xh4HX3n6qDW-37" value="领导驾驶舱" style="rounded=1;whiteSpace=wrap;html=1;fillColor=#ffe6cc;strokeColor=#d79b00;" vertex="1" parent="1">
          <mxGeometry x="2197.2" y="-1157.75" width="100" height="30" as="geometry" />
        </mxCell>
        <mxCell id="r3yZTHQa6Xh4HX3n6qDW-38" value="帆软/积木&lt;br&gt;数据报表" style="rounded=1;whiteSpace=wrap;html=1;fillColor=#ffe6cc;strokeColor=#d79b00;" vertex="1" parent="1">
          <mxGeometry x="2197.2" y="-1122.75" width="100" height="30" as="geometry" />
        </mxCell>
        <mxCell id="r3yZTHQa6Xh4HX3n6qDW-39" value="供应商APP" style="rounded=1;whiteSpace=wrap;html=1;fillColor=#ffe6cc;strokeColor=#d79b00;" vertex="1" parent="1">
          <mxGeometry x="1762" y="-1122.75" width="100" height="30" as="geometry" />
        </mxCell>
        <mxCell id="r3yZTHQa6Xh4HX3n6qDW-40" value="" style="rounded=0;whiteSpace=wrap;html=1;dashed=1;" vertex="1" parent="1">
          <mxGeometry x="1734.75" y="-618.75" width="940" height="110.5" as="geometry" />
        </mxCell>
        <mxCell id="r3yZTHQa6Xh4HX3n6qDW-41" value="技术中台" style="text;html=1;strokeColor=none;fillColor=none;align=center;verticalAlign=middle;whiteSpace=wrap;rounded=0;dashed=1;fontStyle=1" vertex="1" parent="1">
          <mxGeometry x="1744.75" y="-590.01" width="78" height="20" as="geometry" />
        </mxCell>
        <mxCell id="r3yZTHQa6Xh4HX3n6qDW-42" value="&lt;span style=&quot;background-color: rgba(255 , 255 , 255 , 0.01)&quot;&gt;&lt;font color=&quot;#323232&quot;&gt;&lt;span style=&quot;font-size: 13px&quot;&gt;SnowFlake&lt;br&gt;全局唯一编码&lt;/span&gt;&lt;/font&gt;&lt;br&gt;&lt;/span&gt;" style="rounded=1;whiteSpace=wrap;html=1;fillColor=#b1ddf0;strokeColor=#10739e;" vertex="1" parent="1">
          <mxGeometry x="2409.9" y="-605.1199999999997" width="90" height="38" as="geometry" />
        </mxCell>
        <mxCell id="r3yZTHQa6Xh4HX3n6qDW-43" value="&lt;div class=&quot;mind-clipboard&quot;&gt;&lt;br&gt;&lt;/div&gt;" style="text;whiteSpace=wrap;html=1;" vertex="1" parent="1">
          <mxGeometry x="1971" y="-710.75" width="70" height="40" as="geometry" />
        </mxCell>
        <mxCell id="r3yZTHQa6Xh4HX3n6qDW-44" value="" style="rounded=0;whiteSpace=wrap;html=1;dashed=1;" vertex="1" parent="1">
          <mxGeometry x="1734.75" y="-713.25" width="800" height="65" as="geometry" />
        </mxCell>
        <mxCell id="r3yZTHQa6Xh4HX3n6qDW-45" value="数据" style="text;html=1;strokeColor=none;fillColor=none;align=center;verticalAlign=middle;whiteSpace=wrap;rounded=0;dashed=1;fontStyle=1" vertex="1" parent="1">
          <mxGeometry x="1755.5" y="-690.75" width="78" height="20" as="geometry" />
        </mxCell>
        <mxCell id="r3yZTHQa6Xh4HX3n6qDW-46" style="edgeStyle=orthogonalEdgeStyle;rounded=0;orthogonalLoop=1;jettySize=auto;html=1;" edge="1" parent="1" source="r3yZTHQa6Xh4HX3n6qDW-3" target="r3yZTHQa6Xh4HX3n6qDW-44">
          <mxGeometry relative="1" as="geometry" />
        </mxCell>
        <mxCell id="r3yZTHQa6Xh4HX3n6qDW-47" value="基础业务服务" style="rounded=1;whiteSpace=wrap;html=1;fillColor=#dae8fc;strokeColor=#6c8ebf;" vertex="1" parent="1">
          <mxGeometry x="1773.5" y="-861.5" width="80" height="30" as="geometry" />
        </mxCell>
        <mxCell id="r3yZTHQa6Xh4HX3n6qDW-48" value="支付服务" style="rounded=1;whiteSpace=wrap;html=1;fillColor=#dae8fc;strokeColor=#6c8ebf;" vertex="1" parent="1">
          <mxGeometry x="2042.9" y="-819.75" width="80" height="30" as="geometry" />
        </mxCell>
        <mxCell id="r3yZTHQa6Xh4HX3n6qDW-49" value="消息服务" style="rounded=1;whiteSpace=wrap;html=1;fillColor=#dae8fc;strokeColor=#6c8ebf;align=center;" vertex="1" parent="1">
          <mxGeometry x="2043.9" y="-861.5" width="80" height="30" as="geometry" />
        </mxCell>
        <mxCell id="r3yZTHQa6Xh4HX3n6qDW-50" value="&lt;div style=&quot;text-align: left&quot;&gt;回款服务&lt;/div&gt;" style="rounded=1;whiteSpace=wrap;html=1;fillColor=#dae8fc;strokeColor=#6c8ebf;" vertex="1" parent="1">
          <mxGeometry x="2344.3999999999996" y="-861.5" width="80" height="30" as="geometry" />
        </mxCell>
        <mxCell id="r3yZTHQa6Xh4HX3n6qDW-51" value="税务服务" style="rounded=1;whiteSpace=wrap;html=1;fillColor=#dae8fc;strokeColor=#6c8ebf;" vertex="1" parent="1">
          <mxGeometry x="2142.77" y="-861.5" width="80" height="30" as="geometry" />
        </mxCell>
        <mxCell id="r3yZTHQa6Xh4HX3n6qDW-52" value="数据中台服务" style="rounded=1;whiteSpace=wrap;html=1;fillColor=#f8cecc;strokeColor=#b85450;" vertex="1" parent="1">
          <mxGeometry x="1749.25" y="-771.25" width="775.5" height="30" as="geometry" />
        </mxCell>
        <mxCell id="r3yZTHQa6Xh4HX3n6qDW-53" value="&lt;span style=&quot;background-color: rgba(255 , 255 , 255 , 0.01)&quot;&gt;&lt;font color=&quot;#323232&quot;&gt;&lt;span style=&quot;font-size: 13px&quot;&gt;OSS&lt;br&gt;&lt;/span&gt;&lt;/font&gt;对象存储&lt;br&gt;&lt;/span&gt;" style="rounded=1;whiteSpace=wrap;html=1;fillColor=#b1ddf0;strokeColor=#10739e;" vertex="1" parent="1">
          <mxGeometry x="2409.9" y="-555.5" width="90" height="38" as="geometry" />
        </mxCell>
        <mxCell id="r3yZTHQa6Xh4HX3n6qDW-54" value="服务治理" style="text;html=1;strokeColor=none;fillColor=none;align=center;verticalAlign=middle;whiteSpace=wrap;rounded=0;dashed=1;fontStyle=1" vertex="1" parent="1">
          <mxGeometry x="2574.75" y="-1217.75" width="78" height="20" as="geometry" />
        </mxCell>
        <mxCell id="r3yZTHQa6Xh4HX3n6qDW-55" value="&lt;span style=&quot;color: rgb(50 , 50 , 50) ; font-size: 13px ; background-color: rgba(255 , 255 , 255 , 0.01)&quot;&gt;Nacos&lt;/span&gt;&lt;span style=&quot;color: rgb(50 , 50 , 50) ; font-size: 13px ; background-color: rgba(255 , 255 , 255 , 0.01)&quot;&gt;&lt;br&gt;服务注册&lt;br&gt;&lt;/span&gt;" style="rounded=1;whiteSpace=wrap;html=1;fillColor=#d5e8d4;strokeColor=#82b366;" vertex="1" parent="1">
          <mxGeometry x="2574.75" y="-1172" width="85" height="40" as="geometry" />
        </mxCell>
        <mxCell id="r3yZTHQa6Xh4HX3n6qDW-56" value="&lt;span style=&quot;color: rgb(50 , 50 , 50) ; font-size: 13px ; background-color: rgba(255 , 255 , 255 , 0.01)&quot;&gt;Nacos&lt;/span&gt;&lt;span style=&quot;color: rgb(50 , 50 , 50) ; font-size: 13px ; background-color: rgba(255 , 255 , 255 , 0.01)&quot;&gt;&lt;br&gt;服务发现&lt;br&gt;&lt;/span&gt;" style="rounded=1;whiteSpace=wrap;html=1;fillColor=#d5e8d4;strokeColor=#82b366;" vertex="1" parent="1">
          <mxGeometry x="2574.75" y="-1101.25" width="85" height="40" as="geometry" />
        </mxCell>
        <mxCell id="r3yZTHQa6Xh4HX3n6qDW-57" value="&lt;span style=&quot;color: rgb(50 , 50 , 50) ; font-size: 13px ; background-color: rgba(255 , 255 , 255 , 0.01)&quot;&gt;Nacos&lt;/span&gt;&lt;span style=&quot;color: rgb(50 , 50 , 50) ; font-size: 13px ; background-color: rgba(255 , 255 , 255 , 0.01)&quot;&gt;&lt;br&gt;配置中心&lt;br&gt;&lt;/span&gt;" style="rounded=1;whiteSpace=wrap;html=1;fillColor=#d5e8d4;strokeColor=#82b366;" vertex="1" parent="1">
          <mxGeometry x="2574.75" y="-1038" width="85" height="40" as="geometry" />
        </mxCell>
        <mxCell id="r3yZTHQa6Xh4HX3n6qDW-58" value="&lt;span style=&quot;color: rgb(50 , 50 , 50) ; font-size: 13px ; background-color: rgba(255 , 255 , 255 , 0.01)&quot;&gt;Spring Admin&lt;br&gt;服务监控&lt;br&gt;&lt;/span&gt;" style="rounded=1;whiteSpace=wrap;html=1;fillColor=#d5e8d4;strokeColor=#82b366;" vertex="1" parent="1">
          <mxGeometry x="2574.75" y="-972.25" width="85" height="40" as="geometry" />
        </mxCell>
        <mxCell id="r3yZTHQa6Xh4HX3n6qDW-59" value="&lt;span style=&quot;text-align: left&quot;&gt;ELK&lt;br&gt;日志中心&lt;br&gt;&lt;/span&gt;" style="rounded=1;whiteSpace=wrap;html=1;fillColor=#d5e8d4;strokeColor=#82b366;" vertex="1" parent="1">
          <mxGeometry x="2574.75" y="-741.25" width="85" height="40" as="geometry" />
        </mxCell>
        <mxCell id="r3yZTHQa6Xh4HX3n6qDW-60" value="CDN&lt;br&gt;安全/加速" style="rounded=1;whiteSpace=wrap;html=1;fillColor=#dae8fc;strokeColor=#6c8ebf;" vertex="1" parent="1">
          <mxGeometry x="2105.9" y="-1046.25" width="100" height="30" as="geometry" />
        </mxCell>
        <mxCell id="r3yZTHQa6Xh4HX3n6qDW-61" style="edgeStyle=orthogonalEdgeStyle;rounded=0;orthogonalLoop=1;jettySize=auto;html=1;exitX=0.5;exitY=1;exitDx=0;exitDy=0;fontSize=29;" edge="1" parent="1" source="r3yZTHQa6Xh4HX3n6qDW-45" target="r3yZTHQa6Xh4HX3n6qDW-45">
          <mxGeometry relative="1" as="geometry" />
        </mxCell>
        <mxCell id="r3yZTHQa6Xh4HX3n6qDW-62" value="数据资源层" style="rounded=1;whiteSpace=wrap;html=1;fillColor=#b0e3e6;strokeColor=#0e8088;" vertex="1" parent="1">
          <mxGeometry x="1619.75" y="-701.25" width="80" height="30" as="geometry" />
        </mxCell>
        <mxCell id="r3yZTHQa6Xh4HX3n6qDW-63" value="&lt;span style=&quot;text-align: left&quot;&gt;SkyWalking&lt;br&gt;链路中心&lt;br&gt;&lt;/span&gt;" style="rounded=1;whiteSpace=wrap;html=1;fillColor=#d5e8d4;strokeColor=#82b366;" vertex="1" parent="1">
          <mxGeometry x="2572.75" y="-795.5" width="85" height="40" as="geometry" />
        </mxCell>
        <mxCell id="r3yZTHQa6Xh4HX3n6qDW-64" value="&lt;span style=&quot;color: rgb(0 , 0 , 0) ; font-family: &amp;#34;helvetica&amp;#34; ; font-size: 12px ; font-style: normal ; font-weight: 400 ; letter-spacing: normal ; text-align: center ; text-indent: 0px ; text-transform: none ; word-spacing: 0px ; background-color: rgb(248 , 249 , 250) ; display: inline ; float: none&quot;&gt;微服务数据库&lt;br&gt;&lt;/span&gt;&lt;br&gt;&lt;br&gt;" style="shape=cylinder3;whiteSpace=wrap;html=1;boundedLbl=1;backgroundOutline=1;size=15;" vertex="1" parent="1">
          <mxGeometry x="1948.07" y="-703.25" width="77" height="45" as="geometry" />
        </mxCell>
        <mxCell id="r3yZTHQa6Xh4HX3n6qDW-65" value="&lt;span style=&quot;color: rgb(0 , 0 , 0) ; font-family: &amp;#34;helvetica&amp;#34; ; font-size: 12px ; font-style: normal ; font-weight: 400 ; letter-spacing: normal ; text-align: center ; text-indent: 0px ; text-transform: none ; word-spacing: 0px ; background-color: rgb(248 , 249 , 250) ; display: inline ; float: none&quot;&gt;微服务数据库&lt;br&gt;&lt;/span&gt;&lt;br&gt;&lt;br&gt;" style="shape=cylinder3;whiteSpace=wrap;html=1;boundedLbl=1;backgroundOutline=1;size=15;" vertex="1" parent="1">
          <mxGeometry x="1845.25" y="-703.25" width="77" height="45" as="geometry" />
        </mxCell>
        <mxCell id="r3yZTHQa6Xh4HX3n6qDW-66" value="&lt;div style=&quot;text-align: left&quot;&gt;银企直连服务&lt;/div&gt;" style="rounded=1;whiteSpace=wrap;html=1;fillColor=#dae8fc;strokeColor=#6c8ebf;" vertex="1" parent="1">
          <mxGeometry x="2243.25" y="-861.5" width="80" height="30" as="geometry" />
        </mxCell>
        <mxCell id="r3yZTHQa6Xh4HX3n6qDW-67" value="基础资料服务" style="rounded=1;whiteSpace=wrap;html=1;fillColor=#dae8fc;strokeColor=#6c8ebf;" vertex="1" parent="1">
          <mxGeometry x="1887.25" y="-861.5" width="80" height="30" as="geometry" />
        </mxCell>
        <mxCell id="r3yZTHQa6Xh4HX3n6qDW-68" value="" style="rounded=0;whiteSpace=wrap;html=1;dashed=1;" vertex="1" parent="1">
          <mxGeometry x="399.73" y="-1253" width="865.77" height="150" as="geometry" />
        </mxCell>
        <mxCell id="r3yZTHQa6Xh4HX3n6qDW-69" value="" style="rounded=1;whiteSpace=wrap;html=1;dashed=1;" vertex="1" parent="1">
          <mxGeometry x="264.65" y="-1253" width="105" height="607" as="geometry" />
        </mxCell>
        <mxCell id="r3yZTHQa6Xh4HX3n6qDW-70" value="用户层" style="rounded=1;whiteSpace=wrap;html=1;fillColor=#b0e3e6;strokeColor=#0e8088;" vertex="1" parent="1">
          <mxGeometry x="274.65" y="-1192.5" width="75" height="40" as="geometry" />
        </mxCell>
        <mxCell id="r3yZTHQa6Xh4HX3n6qDW-71" value="应用系统层" style="rounded=1;whiteSpace=wrap;html=1;fillColor=#b0e3e6;strokeColor=#0e8088;" vertex="1" parent="1">
          <mxGeometry x="274.65" y="-956" width="75" height="40" as="geometry" />
        </mxCell>
        <mxCell id="r3yZTHQa6Xh4HX3n6qDW-72" value="客户" style="pointerEvents=1;shadow=0;dashed=0;html=1;strokeColor=none;labelPosition=center;verticalLabelPosition=bottom;verticalAlign=top;align=center;fillColor=#505050;shape=mxgraph.mscae.intune.account_portal" vertex="1" parent="1">
          <mxGeometry x="466" y="-1351" width="43" height="50" as="geometry" />
        </mxCell>
        <mxCell id="r3yZTHQa6Xh4HX3n6qDW-73" value="移动端" style="aspect=fixed;html=1;points=[];align=center;image;fontSize=12;image=img/lib/mscae/Devices_Groups.svg;" vertex="1" parent="1">
          <mxGeometry x="471.9" y="-1239.5" width="27" height="27" as="geometry" />
        </mxCell>
        <mxCell id="r3yZTHQa6Xh4HX3n6qDW-74" value="员工" style="aspect=fixed;pointerEvents=1;shadow=0;dashed=0;html=1;strokeColor=#10739e;labelPosition=center;verticalLabelPosition=bottom;verticalAlign=top;align=center;fillColor=#b1ddf0;shape=mxgraph.azure.user" vertex="1" parent="1">
          <mxGeometry x="726.75" y="-1356" width="47" height="50" as="geometry" />
        </mxCell>
        <mxCell id="r3yZTHQa6Xh4HX3n6qDW-75" style="edgeStyle=orthogonalEdgeStyle;rounded=0;orthogonalLoop=1;jettySize=auto;html=1;" edge="1" parent="1" source="r3yZTHQa6Xh4HX3n6qDW-76" target="r3yZTHQa6Xh4HX3n6qDW-128">
          <mxGeometry relative="1" as="geometry">
            <Array as="points">
              <mxPoint x="491.5" y="-1056" />
              <mxPoint x="1179.5" y="-1056" />
            </Array>
          </mxGeometry>
        </mxCell>
        <mxCell id="r3yZTHQa6Xh4HX3n6qDW-76" value="小程序" style="rounded=1;whiteSpace=wrap;html=1;fillColor=#ffe6cc;strokeColor=#d79b00;" vertex="1" parent="1">
          <mxGeometry x="440.58" y="-1147.5" width="100" height="30" as="geometry" />
        </mxCell>
        <mxCell id="r3yZTHQa6Xh4HX3n6qDW-77" value="&lt;div class=&quot;mind-clipboard&quot;&gt;&lt;br&gt;&lt;/div&gt;" style="text;whiteSpace=wrap;html=1;" vertex="1" parent="1">
          <mxGeometry x="639.9" y="-708.5" width="70" height="40" as="geometry" />
        </mxCell>
        <mxCell id="r3yZTHQa6Xh4HX3n6qDW-78" value="" style="rounded=0;whiteSpace=wrap;html=1;dashed=1;" vertex="1" parent="1">
          <mxGeometry x="416.25000000000006" y="-746" width="871.85" height="103" as="geometry" />
        </mxCell>
        <mxCell id="r3yZTHQa6Xh4HX3n6qDW-79" style="edgeStyle=orthogonalEdgeStyle;rounded=0;orthogonalLoop=1;jettySize=auto;html=1;exitX=0.5;exitY=1;exitDx=0;exitDy=0;fontSize=29;" edge="1" parent="1">
          <mxGeometry relative="1" as="geometry">
            <mxPoint x="463.4000000000001" y="-668.5" as="sourcePoint" />
            <mxPoint x="463.4000000000001" y="-668.5" as="targetPoint" />
          </mxGeometry>
        </mxCell>
        <mxCell id="r3yZTHQa6Xh4HX3n6qDW-80" value="数据资源层" style="rounded=1;whiteSpace=wrap;html=1;fillColor=#b0e3e6;strokeColor=#0e8088;" vertex="1" parent="1">
          <mxGeometry x="279.65" y="-726" width="70" height="41" as="geometry" />
        </mxCell>
        <mxCell id="r3yZTHQa6Xh4HX3n6qDW-81" value="&lt;span style=&quot;color: rgb(0 , 0 , 0) ; font-family: &amp;#34;helvetica&amp;#34; ; font-size: 12px ; font-style: normal ; font-weight: 400 ; letter-spacing: normal ; text-align: center ; text-indent: 0px ; text-transform: none ; word-spacing: 0px ; background-color: rgb(248 , 249 , 250) ; display: inline ; float: none&quot;&gt;蓝凌数据库&lt;/span&gt;" style="shape=cylinder3;whiteSpace=wrap;html=1;boundedLbl=1;backgroundOutline=1;size=15;" vertex="1" parent="1">
          <mxGeometry x="610.65" y="-719" width="77" height="63" as="geometry" />
        </mxCell>
        <mxCell id="r3yZTHQa6Xh4HX3n6qDW-82" value="&lt;span style=&quot;text-align: left&quot;&gt;Activiti&lt;br&gt;流程引擎&lt;br&gt;&lt;/span&gt;" style="rounded=1;whiteSpace=wrap;html=1;fillColor=#b1ddf0;strokeColor=#10739e;" vertex="1" parent="1">
          <mxGeometry x="2548.15" y="-605.1199999999999" width="90" height="38" as="geometry" />
        </mxCell>
        <mxCell id="r3yZTHQa6Xh4HX3n6qDW-83" value="&lt;span style=&quot;text-align: left&quot;&gt;等等&lt;br&gt;其他技术中间件&lt;br&gt;&lt;/span&gt;" style="rounded=1;whiteSpace=wrap;html=1;fillColor=#b1ddf0;strokeColor=#10739e;" vertex="1" parent="1">
          <mxGeometry x="2548.15" y="-555.5" width="90" height="38" as="geometry" />
        </mxCell>
        <mxCell id="r3yZTHQa6Xh4HX3n6qDW-84" value="&lt;div style=&quot;text-align: left&quot;&gt;税务共享系统&lt;/div&gt;" style="rounded=1;whiteSpace=wrap;html=1;fillColor=#fff2cc;strokeColor=#d6b656;" vertex="1" parent="1">
          <mxGeometry x="2424.9" y="-980.75" width="90" height="40" as="geometry" />
        </mxCell>
        <mxCell id="r3yZTHQa6Xh4HX3n6qDW-85" value="&lt;div style=&quot;text-align: left&quot;&gt;等等外部系统&lt;/div&gt;" style="rounded=1;whiteSpace=wrap;html=1;fillColor=#fff2cc;strokeColor=#d6b656;" vertex="1" parent="1">
          <mxGeometry x="2424.9" y="-932.25" width="90" height="40" as="geometry" />
        </mxCell>
        <mxCell id="r3yZTHQa6Xh4HX3n6qDW-86" value="等等" style="rounded=1;whiteSpace=wrap;html=1;fillColor=#dae8fc;strokeColor=#6c8ebf;" vertex="1" parent="1">
          <mxGeometry x="2270.75" y="-955.25" width="90" height="34" as="geometry" />
        </mxCell>
        <mxCell id="r3yZTHQa6Xh4HX3n6qDW-87" value="&lt;div style=&quot;text-align: left&quot;&gt;搜索服务&lt;/div&gt;" style="rounded=1;whiteSpace=wrap;html=1;fillColor=#dae8fc;strokeColor=#6c8ebf;" vertex="1" parent="1">
          <mxGeometry x="2344.4" y="-819.75" width="80" height="30" as="geometry" />
        </mxCell>
        <mxCell id="r3yZTHQa6Xh4HX3n6qDW-88" value="&lt;div style=&quot;text-align: left&quot;&gt;等等...&lt;/div&gt;" style="rounded=1;whiteSpace=wrap;html=1;fillColor=#dae8fc;strokeColor=#6c8ebf;" vertex="1" parent="1">
          <mxGeometry x="2434.9" y="-819.75" width="80" height="30" as="geometry" />
        </mxCell>
        <mxCell id="r3yZTHQa6Xh4HX3n6qDW-89" value="伙伴" style="aspect=fixed;pointerEvents=1;shadow=0;dashed=0;html=1;strokeColor=#82b366;labelPosition=center;verticalLabelPosition=bottom;verticalAlign=top;align=center;fillColor=#d5e8d4;shape=mxgraph.azure.user" vertex="1" parent="1">
          <mxGeometry x="2349.4" y="-1331.25" width="53" height="50" as="geometry" />
        </mxCell>
        <mxCell id="r3yZTHQa6Xh4HX3n6qDW-90" value="伙伴APP" style="rounded=1;whiteSpace=wrap;html=1;fillColor=#ffe6cc;strokeColor=#d79b00;" vertex="1" parent="1">
          <mxGeometry x="2329.9" y="-1161.25" width="100" height="30" as="geometry" />
        </mxCell>
        <mxCell id="r3yZTHQa6Xh4HX3n6qDW-91" value="伙伴后台管理" style="rounded=1;whiteSpace=wrap;html=1;fillColor=#ffe6cc;strokeColor=#d79b00;" vertex="1" parent="1">
          <mxGeometry x="2329.9" y="-1122.75" width="100" height="30" as="geometry" />
        </mxCell>
        <mxCell id="r3yZTHQa6Xh4HX3n6qDW-92" value="伙伴平台" style="aspect=fixed;pointerEvents=1;shadow=0;dashed=0;html=1;strokeColor=#666666;labelPosition=center;verticalLabelPosition=bottom;verticalAlign=top;align=center;fillColor=#f5f5f5;shape=mxgraph.azure.laptop;rounded=0;fontColor=#333333;" vertex="1" parent="1">
          <mxGeometry x="2344.4" y="-1219.75" width="50" height="30" as="geometry" />
        </mxCell>
        <mxCell id="r3yZTHQa6Xh4HX3n6qDW-93" value="等等" style="aspect=fixed;pointerEvents=1;shadow=0;dashed=0;html=1;labelPosition=center;verticalLabelPosition=bottom;verticalAlign=top;align=center;shape=mxgraph.azure.user" vertex="1" parent="1">
          <mxGeometry x="2469.9" y="-1331.25" width="53" height="50" as="geometry" />
        </mxCell>
        <mxCell id="r3yZTHQa6Xh4HX3n6qDW-94" value="" style="aspect=fixed;pointerEvents=1;shadow=0;dashed=0;html=1;labelPosition=center;verticalLabelPosition=bottom;verticalAlign=top;align=center;shape=mxgraph.azure.healthy;rounded=0;" vertex="1" parent="1">
          <mxGeometry x="2459.9" y="-1219.75" width="50" height="45" as="geometry" />
        </mxCell>
        <mxCell id="r3yZTHQa6Xh4HX3n6qDW-95" value="等等应用" style="rounded=1;whiteSpace=wrap;html=1;fillColor=#ffe6cc;strokeColor=#d79b00;" vertex="1" parent="1">
          <mxGeometry x="2451.7" y="-1161.25" width="73.9" height="30" as="geometry" />
        </mxCell>
        <mxCell id="r3yZTHQa6Xh4HX3n6qDW-96" value="等等平台" style="rounded=1;whiteSpace=wrap;html=1;fillColor=#ffe6cc;strokeColor=#d79b00;" vertex="1" parent="1">
          <mxGeometry x="2451.7" y="-1121.25" width="73.9" height="30" as="geometry" />
        </mxCell>
        <mxCell id="r3yZTHQa6Xh4HX3n6qDW-97" value="征信查询服务" style="rounded=1;whiteSpace=wrap;html=1;fillColor=#dae8fc;strokeColor=#6c8ebf;" vertex="1" parent="1">
          <mxGeometry x="2243.25" y="-820.1199999999999" width="80" height="30" as="geometry" />
        </mxCell>
        <mxCell id="r3yZTHQa6Xh4HX3n6qDW-98" value="企查查服务" style="rounded=1;whiteSpace=wrap;html=1;fillColor=#dae8fc;strokeColor=#6c8ebf;" vertex="1" parent="1">
          <mxGeometry x="2147" y="-820.1199999999999" width="80" height="30" as="geometry" />
        </mxCell>
        <mxCell id="r3yZTHQa6Xh4HX3n6qDW-99" value="基础权限服务" style="rounded=1;whiteSpace=wrap;html=1;fillColor=#dae8fc;strokeColor=#6c8ebf;" vertex="1" parent="1">
          <mxGeometry x="1773.5" y="-823.25" width="80" height="30" as="geometry" />
        </mxCell>
        <mxCell id="r3yZTHQa6Xh4HX3n6qDW-100" value="其他基础服务" style="rounded=1;whiteSpace=wrap;html=1;fillColor=#dae8fc;strokeColor=#6c8ebf;" vertex="1" parent="1">
          <mxGeometry x="1886" y="-823.25" width="80" height="30" as="geometry" />
        </mxCell>
        <mxCell id="r3yZTHQa6Xh4HX3n6qDW-101" value="PC端" style="aspect=fixed;html=1;points=[];align=center;image;fontSize=12;image=img/lib/mscae/Managed_Desktop.svg;" vertex="1" parent="1">
          <mxGeometry x="726.7499999999999" y="-1242.5" width="41.67" height="30" as="geometry" />
        </mxCell>
        <mxCell id="r3yZTHQa6Xh4HX3n6qDW-102" style="edgeStyle=orthogonalEdgeStyle;rounded=0;orthogonalLoop=1;jettySize=auto;html=1;" edge="1" parent="1" source="r3yZTHQa6Xh4HX3n6qDW-103" target="r3yZTHQa6Xh4HX3n6qDW-115">
          <mxGeometry relative="1" as="geometry">
            <Array as="points">
              <mxPoint x="708.5" y="-996" />
              <mxPoint x="493.5" y="-996" />
            </Array>
          </mxGeometry>
        </mxCell>
        <mxCell id="r3yZTHQa6Xh4HX3n6qDW-103" value="致远OA" style="rounded=1;whiteSpace=wrap;html=1;fillColor=#ffe6cc;strokeColor=#d79b00;" vertex="1" parent="1">
          <mxGeometry x="659.03" y="-1160" width="100" height="27" as="geometry" />
        </mxCell>
        <mxCell id="r3yZTHQa6Xh4HX3n6qDW-104" style="edgeStyle=orthogonalEdgeStyle;rounded=0;orthogonalLoop=1;jettySize=auto;html=1;" edge="1" parent="1" source="r3yZTHQa6Xh4HX3n6qDW-105" target="r3yZTHQa6Xh4HX3n6qDW-119">
          <mxGeometry relative="1" as="geometry">
            <Array as="points">
              <mxPoint x="831.59" y="-966" />
              <mxPoint x="619.5899999999999" y="-966" />
            </Array>
          </mxGeometry>
        </mxCell>
        <mxCell id="r3yZTHQa6Xh4HX3n6qDW-105" value="蓝凌OA" style="rounded=1;whiteSpace=wrap;html=1;fillColor=#ffe6cc;strokeColor=#d79b00;" vertex="1" parent="1">
          <mxGeometry x="802.5000000000001" y="-1160" width="100" height="30" as="geometry" />
        </mxCell>
        <mxCell id="r3yZTHQa6Xh4HX3n6qDW-106" value="管理" style="aspect=fixed;pointerEvents=1;shadow=0;dashed=0;html=1;strokeColor=#ae4132;labelPosition=center;verticalLabelPosition=bottom;verticalAlign=top;align=center;fillColor=#fad9d5;shape=mxgraph.azure.user" vertex="1" parent="1">
          <mxGeometry x="1025.4499999999998" y="-1356" width="47" height="50" as="geometry" />
        </mxCell>
        <mxCell id="r3yZTHQa6Xh4HX3n6qDW-107" value="数据大屏" style="aspect=fixed;html=1;points=[];align=center;image;fontSize=12;image=img/lib/mscae/Machine_Learning_Studio_Web_Service_Plans.svg;" vertex="1" parent="1">
          <mxGeometry x="1035.32" y="-1249.5" width="37" height="37" as="geometry" />
        </mxCell>
        <mxCell id="r3yZTHQa6Xh4HX3n6qDW-108" value="致远报表" style="rounded=1;whiteSpace=wrap;html=1;fillColor=#ffe6cc;strokeColor=#d79b00;" vertex="1" parent="1">
          <mxGeometry x="1010" y="-1164.75" width="100" height="27" as="geometry" />
        </mxCell>
        <mxCell id="r3yZTHQa6Xh4HX3n6qDW-109" value="&lt;span style=&quot;color: rgb(0 , 0 , 0) ; font-family: &amp;#34;helvetica&amp;#34; ; font-size: 12px ; font-style: normal ; font-weight: 400 ; letter-spacing: normal ; text-align: center ; text-indent: 0px ; text-transform: none ; word-spacing: 0px ; background-color: rgb(248 , 249 , 250) ; display: inline ; float: none&quot;&gt;致远数据库&lt;/span&gt;" style="shape=cylinder3;whiteSpace=wrap;html=1;boundedLbl=1;backgroundOutline=1;size=15;" vertex="1" parent="1">
          <mxGeometry x="455.9" y="-719" width="77" height="63" as="geometry" />
        </mxCell>
        <mxCell id="r3yZTHQa6Xh4HX3n6qDW-110" value="&lt;span style=&quot;color: rgb(0 , 0 , 0) ; font-family: &amp;#34;helvetica&amp;#34; ; font-size: 12px ; font-style: normal ; font-weight: 400 ; letter-spacing: normal ; text-align: center ; text-indent: 0px ; text-transform: none ; word-spacing: 0px ; background-color: rgb(248 , 249 , 250) ; display: inline ; float: none&quot;&gt;U8数据库&lt;/span&gt;" style="shape=cylinder3;whiteSpace=wrap;html=1;boundedLbl=1;backgroundOutline=1;size=15;" vertex="1" parent="1">
          <mxGeometry x="740.9499999999999" y="-720" width="77" height="63" as="geometry" />
        </mxCell>
        <mxCell id="r3yZTHQa6Xh4HX3n6qDW-111" value="&lt;span style=&quot;color: rgb(0 , 0 , 0) ; font-family: &amp;#34;helvetica&amp;#34; ; font-size: 12px ; font-style: normal ; font-weight: 400 ; letter-spacing: normal ; text-align: center ; text-indent: 0px ; text-transform: none ; word-spacing: 0px ; background-color: rgb(248 , 249 , 250) ; display: inline ; float: none&quot;&gt;T+数据库&lt;/span&gt;" style="shape=cylinder3;whiteSpace=wrap;html=1;boundedLbl=1;backgroundOutline=1;size=15;" vertex="1" parent="1">
          <mxGeometry x="958.32" y="-720" width="77" height="63" as="geometry" />
        </mxCell>
        <mxCell id="r3yZTHQa6Xh4HX3n6qDW-112" style="edgeStyle=orthogonalEdgeStyle;rounded=0;orthogonalLoop=1;jettySize=auto;html=1;" edge="1" parent="1" source="r3yZTHQa6Xh4HX3n6qDW-115" target="r3yZTHQa6Xh4HX3n6qDW-109">
          <mxGeometry relative="1" as="geometry">
            <Array as="points">
              <mxPoint x="497.5" y="-780" />
              <mxPoint x="497.5" y="-780" />
            </Array>
          </mxGeometry>
        </mxCell>
        <mxCell id="r3yZTHQa6Xh4HX3n6qDW-113" style="edgeStyle=orthogonalEdgeStyle;rounded=0;orthogonalLoop=1;jettySize=auto;html=1;entryX=0.5;entryY=0;entryDx=0;entryDy=0;" edge="1" parent="1" source="r3yZTHQa6Xh4HX3n6qDW-115" target="r3yZTHQa6Xh4HX3n6qDW-121">
          <mxGeometry relative="1" as="geometry">
            <Array as="points">
              <mxPoint x="780.59" y="-930" />
            </Array>
          </mxGeometry>
        </mxCell>
        <mxCell id="r3yZTHQa6Xh4HX3n6qDW-114" style="edgeStyle=orthogonalEdgeStyle;rounded=0;orthogonalLoop=1;jettySize=auto;html=1;entryX=0;entryY=0.75;entryDx=0;entryDy=0;" edge="1" parent="1" source="r3yZTHQa6Xh4HX3n6qDW-115" target="r3yZTHQa6Xh4HX3n6qDW-132">
          <mxGeometry relative="1" as="geometry">
            <Array as="points">
              <mxPoint x="494.5" y="-899" />
              <mxPoint x="691.5" y="-899" />
            </Array>
          </mxGeometry>
        </mxCell>
        <mxCell id="r3yZTHQa6Xh4HX3n6qDW-115" value="致远系统" style="rounded=1;whiteSpace=wrap;html=1;fillColor=#dae8fc;strokeColor=#6c8ebf;" vertex="1" parent="1">
          <mxGeometry x="448.22999999999996" y="-956" width="92.35" height="40" as="geometry" />
        </mxCell>
        <mxCell id="r3yZTHQa6Xh4HX3n6qDW-116" style="edgeStyle=orthogonalEdgeStyle;rounded=0;orthogonalLoop=1;jettySize=auto;html=1;" edge="1" parent="1" source="r3yZTHQa6Xh4HX3n6qDW-119" target="r3yZTHQa6Xh4HX3n6qDW-81">
          <mxGeometry relative="1" as="geometry" />
        </mxCell>
        <mxCell id="r3yZTHQa6Xh4HX3n6qDW-117" style="edgeStyle=orthogonalEdgeStyle;rounded=0;orthogonalLoop=1;jettySize=auto;html=1;" edge="1" parent="1" source="r3yZTHQa6Xh4HX3n6qDW-119" target="r3yZTHQa6Xh4HX3n6qDW-121">
          <mxGeometry relative="1" as="geometry" />
        </mxCell>
        <mxCell id="r3yZTHQa6Xh4HX3n6qDW-118" style="edgeStyle=orthogonalEdgeStyle;rounded=0;orthogonalLoop=1;jettySize=auto;html=1;" edge="1" parent="1" source="r3yZTHQa6Xh4HX3n6qDW-119" target="r3yZTHQa6Xh4HX3n6qDW-132">
          <mxGeometry relative="1" as="geometry">
            <Array as="points">
              <mxPoint x="669.5899999999999" y="-920" />
            </Array>
          </mxGeometry>
        </mxCell>
        <mxCell id="r3yZTHQa6Xh4HX3n6qDW-119" value="蓝凌系统" style="rounded=1;whiteSpace=wrap;html=1;fillColor=#dae8fc;strokeColor=#6c8ebf;" vertex="1" parent="1">
          <mxGeometry x="604.8" y="-876" width="92.35" height="40" as="geometry" />
        </mxCell>
        <mxCell id="r3yZTHQa6Xh4HX3n6qDW-120" style="edgeStyle=orthogonalEdgeStyle;rounded=0;orthogonalLoop=1;jettySize=auto;html=1;entryX=0.5;entryY=0;entryDx=0;entryDy=0;entryPerimeter=0;" edge="1" parent="1" source="r3yZTHQa6Xh4HX3n6qDW-121" target="r3yZTHQa6Xh4HX3n6qDW-110">
          <mxGeometry relative="1" as="geometry" />
        </mxCell>
        <mxCell id="r3yZTHQa6Xh4HX3n6qDW-121" value="U8系统" style="rounded=1;whiteSpace=wrap;html=1;fillColor=#dae8fc;strokeColor=#6c8ebf;" vertex="1" parent="1">
          <mxGeometry x="734.3000000000001" y="-876" width="92.35" height="40" as="geometry" />
        </mxCell>
        <mxCell id="r3yZTHQa6Xh4HX3n6qDW-122" style="edgeStyle=orthogonalEdgeStyle;rounded=0;orthogonalLoop=1;jettySize=auto;html=1;" edge="1" parent="1" source="r3yZTHQa6Xh4HX3n6qDW-123" target="r3yZTHQa6Xh4HX3n6qDW-111">
          <mxGeometry relative="1" as="geometry" />
        </mxCell>
        <mxCell id="r3yZTHQa6Xh4HX3n6qDW-123" value="T+系统" style="rounded=1;whiteSpace=wrap;html=1;fillColor=#dae8fc;strokeColor=#6c8ebf;" vertex="1" parent="1">
          <mxGeometry x="951.2999999999997" y="-800" width="92.35" height="40" as="geometry" />
        </mxCell>
        <mxCell id="r3yZTHQa6Xh4HX3n6qDW-124" style="edgeStyle=orthogonalEdgeStyle;rounded=0;orthogonalLoop=1;jettySize=auto;html=1;" edge="1" parent="1" source="r3yZTHQa6Xh4HX3n6qDW-128" target="r3yZTHQa6Xh4HX3n6qDW-129">
          <mxGeometry relative="1" as="geometry" />
        </mxCell>
        <mxCell id="r3yZTHQa6Xh4HX3n6qDW-125" style="edgeStyle=orthogonalEdgeStyle;rounded=0;orthogonalLoop=1;jettySize=auto;html=1;" edge="1" parent="1" source="r3yZTHQa6Xh4HX3n6qDW-128" target="r3yZTHQa6Xh4HX3n6qDW-130">
          <mxGeometry relative="1" as="geometry" />
        </mxCell>
        <mxCell id="r3yZTHQa6Xh4HX3n6qDW-126" style="edgeStyle=orthogonalEdgeStyle;rounded=0;orthogonalLoop=1;jettySize=auto;html=1;" edge="1" parent="1" source="r3yZTHQa6Xh4HX3n6qDW-128" target="r3yZTHQa6Xh4HX3n6qDW-115">
          <mxGeometry relative="1" as="geometry">
            <Array as="points">
              <mxPoint x="969.59" y="-940" />
              <mxPoint x="969.59" y="-940" />
            </Array>
          </mxGeometry>
        </mxCell>
        <mxCell id="r3yZTHQa6Xh4HX3n6qDW-127" style="edgeStyle=orthogonalEdgeStyle;rounded=0;orthogonalLoop=1;jettySize=auto;html=1;" edge="1" parent="1" source="r3yZTHQa6Xh4HX3n6qDW-128" target="r3yZTHQa6Xh4HX3n6qDW-119">
          <mxGeometry relative="1" as="geometry">
            <Array as="points">
              <mxPoint x="650.5899999999999" y="-949" />
            </Array>
          </mxGeometry>
        </mxCell>
        <mxCell id="r3yZTHQa6Xh4HX3n6qDW-128" value="PHP系统" style="rounded=1;whiteSpace=wrap;html=1;fillColor=#dae8fc;strokeColor=#6c8ebf;" vertex="1" parent="1">
          <mxGeometry x="1132.8999999999999" y="-969.5" width="92.35" height="40" as="geometry" />
        </mxCell>
        <mxCell id="r3yZTHQa6Xh4HX3n6qDW-129" value="&lt;span style=&quot;color: rgb(0 , 0 , 0) ; font-family: &amp;#34;helvetica&amp;#34; ; font-size: 12px ; font-style: normal ; font-weight: 400 ; letter-spacing: normal ; text-align: center ; text-indent: 0px ; text-transform: none ; word-spacing: 0px ; background-color: rgb(248 , 249 , 250) ; display: inline ; float: none&quot;&gt;PHP数据库1&lt;/span&gt;" style="shape=cylinder3;whiteSpace=wrap;html=1;boundedLbl=1;backgroundOutline=1;size=15;" vertex="1" parent="1">
          <mxGeometry x="1063.58" y="-726" width="77" height="63" as="geometry" />
        </mxCell>
        <mxCell id="r3yZTHQa6Xh4HX3n6qDW-130" value="&lt;span style=&quot;color: rgb(0 , 0 , 0) ; font-family: &amp;#34;helvetica&amp;#34; ; font-size: 12px ; font-style: normal ; font-weight: 400 ; letter-spacing: normal ; text-align: center ; text-indent: 0px ; text-transform: none ; word-spacing: 0px ; background-color: rgb(248 , 249 , 250) ; display: inline ; float: none&quot;&gt;PHP数据库2&lt;/span&gt;" style="shape=cylinder3;whiteSpace=wrap;html=1;boundedLbl=1;backgroundOutline=1;size=15;" vertex="1" parent="1">
          <mxGeometry x="1181.9" y="-726" width="77" height="63" as="geometry" />
        </mxCell>
        <mxCell id="r3yZTHQa6Xh4HX3n6qDW-131" style="edgeStyle=orthogonalEdgeStyle;rounded=0;orthogonalLoop=1;jettySize=auto;html=1;" edge="1" parent="1" source="r3yZTHQa6Xh4HX3n6qDW-132" target="r3yZTHQa6Xh4HX3n6qDW-133">
          <mxGeometry relative="1" as="geometry" />
        </mxCell>
        <mxCell id="r3yZTHQa6Xh4HX3n6qDW-132" value="财务共享系统" style="rounded=1;whiteSpace=wrap;html=1;fillColor=#dae8fc;strokeColor=#6c8ebf;" vertex="1" parent="1">
          <mxGeometry x="843.5200000000001" y="-929.5" width="92.35" height="40" as="geometry" />
        </mxCell>
        <mxCell id="r3yZTHQa6Xh4HX3n6qDW-133" value="&lt;font face=&quot;helvetica&quot;&gt;财务共享数据库&lt;/font&gt;" style="shape=cylinder3;whiteSpace=wrap;html=1;boundedLbl=1;backgroundOutline=1;size=15;" vertex="1" parent="1">
          <mxGeometry x="851.1999999999999" y="-719" width="77" height="63" as="geometry" />
        </mxCell>
        <mxCell id="r3yZTHQa6Xh4HX3n6qDW-134" value="&lt;div style=&quot;text-align: left&quot;&gt;&lt;span&gt;&amp;nbsp; &amp;nbsp;CRM&lt;br&gt;客户关系&lt;br&gt;&lt;/span&gt;&lt;/div&gt;" style="rounded=1;whiteSpace=wrap;html=1;fillColor=#dae8fc;strokeColor=#6c8ebf;" vertex="1" parent="1">
          <mxGeometry x="1836" y="-932.25" width="90" height="34" as="geometry" />
        </mxCell>
        <mxCell id="r3yZTHQa6Xh4HX3n6qDW-135" value="用户层" style="rounded=1;whiteSpace=wrap;html=1;fillColor=#b0e3e6;strokeColor=#0e8088;" vertex="1" parent="1">
          <mxGeometry x="1614.75" y="-1167.75" width="80" height="30" as="geometry" />
        </mxCell>
        <mxCell id="r3yZTHQa6Xh4HX3n6qDW-136" value="统一接入层" style="rounded=1;whiteSpace=wrap;html=1;fillColor=#b0e3e6;strokeColor=#0e8088;" vertex="1" parent="1">
          <mxGeometry x="1614.75" y="-1030" width="80" height="30" as="geometry" />
        </mxCell>
        <mxCell id="r3yZTHQa6Xh4HX3n6qDW-137" value="应用系统层" style="rounded=1;whiteSpace=wrap;html=1;fillColor=#b0e3e6;strokeColor=#0e8088;" vertex="1" parent="1">
          <mxGeometry x="1614.75" y="-931.25" width="80" height="30" as="geometry" />
        </mxCell>
        <mxCell id="r3yZTHQa6Xh4HX3n6qDW-138" value="业务支撑层" style="rounded=1;whiteSpace=wrap;html=1;fillColor=#b0e3e6;strokeColor=#0e8088;" vertex="1" parent="1">
          <mxGeometry x="1617.25" y="-824.75" width="80" height="30" as="geometry" />
        </mxCell>
        <mxCell id="r3yZTHQa6Xh4HX3n6qDW-139" value="&lt;span style=&quot;text-align: left&quot;&gt;Redis&lt;br&gt;分布式数据库&lt;br&gt;&lt;/span&gt;" style="rounded=1;whiteSpace=wrap;html=1;fillColor=#b1ddf0;strokeColor=#10739e;" vertex="1" parent="1">
          <mxGeometry x="2129.5" y="-605.1199999999999" width="90" height="38" as="geometry" />
        </mxCell>
        <mxCell id="r3yZTHQa6Xh4HX3n6qDW-140" value="&lt;div style=&quot;&quot;&gt;&lt;span&gt;Xxljob&lt;/span&gt;&lt;/div&gt;&lt;div style=&quot;&quot;&gt;定时任务&lt;/div&gt;" style="rounded=1;whiteSpace=wrap;html=1;align=center;fillColor=#b1ddf0;strokeColor=#10739e;" vertex="1" parent="1">
          <mxGeometry x="2129.5" y="-556" width="90" height="38" as="geometry" />
        </mxCell>
        <mxCell id="r3yZTHQa6Xh4HX3n6qDW-141" value="&lt;span style=&quot;text-align: left&quot;&gt;ElasticSearch 大数据搜索&lt;br&gt;&lt;/span&gt;" style="rounded=1;whiteSpace=wrap;html=1;fillColor=#b1ddf0;strokeColor=#10739e;" vertex="1" parent="1">
          <mxGeometry x="2260.7799999999997" y="-605.1199999999999" width="90" height="38" as="geometry" />
        </mxCell>
        <mxCell id="r3yZTHQa6Xh4HX3n6qDW-142" value="&lt;div style=&quot;&quot;&gt;&lt;span&gt;Xxljob&lt;/span&gt;&lt;/div&gt;&lt;div style=&quot;&quot;&gt;定时任务&lt;/div&gt;" style="rounded=1;whiteSpace=wrap;html=1;align=center;fillColor=#b1ddf0;strokeColor=#10739e;" vertex="1" parent="1">
          <mxGeometry x="2260.7799999999997" y="-558.1299999999999" width="90" height="38" as="geometry" />
        </mxCell>
        <mxCell id="r3yZTHQa6Xh4HX3n6qDW-143" value="rabbitmq&lt;br&gt;分布式消息" style="rounded=1;whiteSpace=wrap;html=1;fillColor=#b1ddf0;strokeColor=#10739e;" vertex="1" parent="1">
          <mxGeometry x="1835.25" y="-604.25" width="90" height="38" as="geometry" />
        </mxCell>
        <mxCell id="r3yZTHQa6Xh4HX3n6qDW-144" value="shardingsphere&lt;br&gt;分库分表" style="rounded=1;whiteSpace=wrap;html=1;fillColor=#b1ddf0;strokeColor=#10739e;" vertex="1" parent="1">
          <mxGeometry x="1837.25" y="-558.1300000000001" width="90" height="38" as="geometry" />
        </mxCell>
        <mxCell id="r3yZTHQa6Xh4HX3n6qDW-145" value="&lt;div class=&quot;mind-clipboard&quot;&gt;&lt;/div&gt;&lt;span&gt;&lt;div&gt;&lt;span&gt;Shiro&lt;/span&gt;&lt;/div&gt;&lt;div&gt;&lt;span&gt;鉴权认证&lt;/span&gt;&lt;/div&gt;&lt;/span&gt;" style="rounded=1;whiteSpace=wrap;html=1;fillColor=#b1ddf0;strokeColor=#10739e;" vertex="1" parent="1">
          <mxGeometry x="1974.75" y="-558.25" width="90" height="38" as="geometry" />
        </mxCell>
        <mxCell id="r3yZTHQa6Xh4HX3n6qDW-146" value="&lt;div class=&quot;mind-clipboard&quot;&gt;&lt;/div&gt;&lt;span&gt;Seata&lt;br&gt;分布式事务&lt;br&gt;&lt;/span&gt;" style="rounded=1;whiteSpace=wrap;html=1;fillColor=#b1ddf0;strokeColor=#10739e;" vertex="1" parent="1">
          <mxGeometry x="1976" y="-607.25" width="90" height="38" as="geometry" />
        </mxCell>
        <mxCell id="r3yZTHQa6Xh4HX3n6qDW-147" value="未来方向" style="text;html=1;strokeColor=none;fillColor=none;align=center;verticalAlign=middle;whiteSpace=wrap;rounded=0;fontSize=19;fontStyle=1" vertex="1" parent="1">
          <mxGeometry x="1964.75" y="-1434.25" width="340" height="46" as="geometry" />
        </mxCell>
        <mxCell id="r3yZTHQa6Xh4HX3n6qDW-148" value="20230225现状" style="text;html=1;strokeColor=none;fillColor=none;align=center;verticalAlign=middle;whiteSpace=wrap;rounded=0;fontSize=19;fontStyle=1" vertex="1" parent="1">
          <mxGeometry x="597.29" y="-1430" width="340" height="46" as="geometry" />
        </mxCell>
        <mxCell id="r3yZTHQa6Xh4HX3n6qDW-149" value="会员APP" style="rounded=1;whiteSpace=wrap;html=1;fillColor=#ffe6cc;strokeColor=#d79b00;" vertex="1" parent="1">
          <mxGeometry x="441.5" y="-1187.5" width="100" height="30" as="geometry" />
        </mxCell>
        <mxCell id="r3yZTHQa6Xh4HX3n6qDW-150" value="" style="rounded=0;whiteSpace=wrap;html=1;" vertex="1" parent="1">
          <mxGeometry x="2059.75" y="-708.25" width="445" height="54" as="geometry" />
        </mxCell>
        <mxCell id="r3yZTHQa6Xh4HX3n6qDW-151" value="致远OA数据库" style="rounded=1;whiteSpace=wrap;html=1;fillColor=#1ba1e2;strokeColor=#006EAF;fontColor=#ffffff;" vertex="1" parent="1">
          <mxGeometry x="2074.65" y="-695.75" width="80" height="30" as="geometry" />
        </mxCell>
        <mxCell id="r3yZTHQa6Xh4HX3n6qDW-152" value="蓝凌OA数据库" style="rounded=1;whiteSpace=wrap;html=1;fillColor=#1ba1e2;strokeColor=#006EAF;fontColor=#ffffff;" vertex="1" parent="1">
          <mxGeometry x="2189.43" y="-696.25" width="80" height="30" as="geometry" />
        </mxCell>
        <mxCell id="r3yZTHQa6Xh4HX3n6qDW-153" value="T+数据库" style="rounded=1;whiteSpace=wrap;html=1;fillColor=#1ba1e2;strokeColor=#006EAF;fontColor=#ffffff;" vertex="1" parent="1">
          <mxGeometry x="2298.95" y="-695.75" width="80" height="30" as="geometry" />
        </mxCell>
        <mxCell id="r3yZTHQa6Xh4HX3n6qDW-154" value="U8数据库" style="rounded=1;whiteSpace=wrap;html=1;fillColor=#1ba1e2;strokeColor=#006EAF;fontColor=#ffffff;" vertex="1" parent="1">
          <mxGeometry x="2399.4" y="-695.75" width="80" height="30" as="geometry" />
        </mxCell>
        <mxCell id="r3yZTHQa6Xh4HX3n6qDW-155" value="" style="rounded=0;whiteSpace=wrap;html=1;dashed=1;" vertex="1" parent="1">
          <mxGeometry x="399.73" y="-490" width="660.27" height="280" as="geometry" />
        </mxCell>
        <mxCell id="r3yZTHQa6Xh4HX3n6qDW-156" value="鲁明机房" style="text;html=1;align=center;verticalAlign=middle;resizable=0;points=[];autosize=1;strokeColor=none;" vertex="1" parent="1">
          <mxGeometry x="430" y="-480" width="60" height="20" as="geometry" />
        </mxCell>
        <mxCell id="r3yZTHQa6Xh4HX3n6qDW-157" value="" style="rounded=0;whiteSpace=wrap;html=1;" vertex="1" parent="1">
          <mxGeometry x="459.65" y="100" width="920" height="610" as="geometry" />
        </mxCell>
        <mxCell id="r3yZTHQa6Xh4HX3n6qDW-158" value="" style="rounded=0;whiteSpace=wrap;html=1;fontSize=13;" vertex="1" parent="1">
          <mxGeometry x="869.65" y="240" width="400" height="440" as="geometry" />
        </mxCell>
        <mxCell id="r3yZTHQa6Xh4HX3n6qDW-159" value="" style="rounded=0;whiteSpace=wrap;html=1;" vertex="1" parent="1">
          <mxGeometry x="449.65" y="805" width="930" height="645" as="geometry" />
        </mxCell>
        <mxCell id="r3yZTHQa6Xh4HX3n6qDW-160" value="" style="rounded=0;whiteSpace=wrap;html=1;fontSize=13;" vertex="1" parent="1">
          <mxGeometry x="749.65" y="828" width="562" height="572" as="geometry" />
        </mxCell>
        <mxCell id="r3yZTHQa6Xh4HX3n6qDW-161" value="" style="rounded=0;whiteSpace=wrap;html=1;" vertex="1" parent="1">
          <mxGeometry x="987.65" y="1200" width="282" height="158" as="geometry" />
        </mxCell>
        <mxCell id="r3yZTHQa6Xh4HX3n6qDW-162" value="" style="rounded=0;whiteSpace=wrap;html=1;" vertex="1" parent="1">
          <mxGeometry x="987.65" y="980" width="282" height="123" as="geometry" />
        </mxCell>
        <mxCell id="r3yZTHQa6Xh4HX3n6qDW-163" value="" style="rounded=0;whiteSpace=wrap;html=1;fontSize=13;" vertex="1" parent="1">
          <mxGeometry x="479.65" y="980" width="230" height="265" as="geometry" />
        </mxCell>
        <mxCell id="r3yZTHQa6Xh4HX3n6qDW-164" value="" style="rounded=0;whiteSpace=wrap;html=1;fontSize=13;" vertex="1" parent="1">
          <mxGeometry x="497.65" y="230" width="260" height="460" as="geometry" />
        </mxCell>
        <mxCell id="r3yZTHQa6Xh4HX3n6qDW-165" value="" style="rounded=0;whiteSpace=wrap;html=1;fontSize=13;" vertex="1" parent="1">
          <mxGeometry x="517.65" y="250" width="120" height="420" as="geometry" />
        </mxCell>
        <mxCell id="r3yZTHQa6Xh4HX3n6qDW-166" style="edgeStyle=orthogonalEdgeStyle;rounded=0;orthogonalLoop=1;jettySize=auto;html=1;startArrow=classic;startFill=1;fontSize=13;" edge="1" parent="1" source="r3yZTHQa6Xh4HX3n6qDW-168">
          <mxGeometry relative="1" as="geometry">
            <mxPoint x="867.65" y="460" as="targetPoint" />
            <Array as="points">
              <mxPoint x="839.65" y="460" />
              <mxPoint x="839.65" y="460" />
            </Array>
          </mxGeometry>
        </mxCell>
        <mxCell id="r3yZTHQa6Xh4HX3n6qDW-167" value="单根专线&lt;br&gt;不连外网" style="edgeLabel;html=1;align=center;verticalAlign=middle;resizable=0;points=[];fontSize=13;" vertex="1" connectable="0" parent="r3yZTHQa6Xh4HX3n6qDW-166">
          <mxGeometry x="0.0683" y="-3" relative="1" as="geometry">
            <mxPoint as="offset" />
          </mxGeometry>
        </mxCell>
        <mxCell id="r3yZTHQa6Xh4HX3n6qDW-168" value="银行路由器&lt;br style=&quot;font-size: 13px&quot;&gt;分配演示网段&lt;br style=&quot;font-size: 13px&quot;&gt;&lt;span style=&quot;font-size: 12px&quot;&gt;172.172.46.30&lt;/span&gt;" style="shape=mxgraph.cisco.routers.router;html=1;pointerEvents=1;dashed=0;fillColor=#036897;strokeColor=#ffffff;strokeWidth=2;verticalLabelPosition=bottom;verticalAlign=top;align=center;outlineConnect=0;fontSize=13;" vertex="1" parent="1">
          <mxGeometry x="657.65" y="433.5" width="78" height="53" as="geometry" />
        </mxCell>
        <mxCell id="r3yZTHQa6Xh4HX3n6qDW-169" value="前置机Esxi集群" style="text;html=1;align=center;verticalAlign=middle;resizable=0;points=[];autosize=1;strokeColor=none;fontSize=13;" vertex="1" parent="1">
          <mxGeometry x="987.65" y="650" width="110" height="20" as="geometry" />
        </mxCell>
        <mxCell id="r3yZTHQa6Xh4HX3n6qDW-170" style="edgeStyle=orthogonalEdgeStyle;rounded=0;orthogonalLoop=1;jettySize=auto;html=1;entryX=0;entryY=0.5;entryDx=0;entryDy=0;entryPerimeter=0;fontSize=13;startArrow=none;startFill=0;" edge="1" parent="1" source="r3yZTHQa6Xh4HX3n6qDW-171" target="r3yZTHQa6Xh4HX3n6qDW-168">
          <mxGeometry relative="1" as="geometry" />
        </mxCell>
        <mxCell id="r3yZTHQa6Xh4HX3n6qDW-171" value="银行业务&lt;br style=&quot;font-size: 13px&quot;&gt;" style="shape=mxgraph.cisco.servers.file_server;html=1;pointerEvents=1;dashed=0;fillColor=#036897;strokeColor=#ffffff;strokeWidth=2;verticalLabelPosition=bottom;verticalAlign=top;align=center;outlineConnect=0;fontSize=13;" vertex="1" parent="1">
          <mxGeometry x="543.78" y="282" width="43" height="58" as="geometry" />
        </mxCell>
        <mxCell id="r3yZTHQa6Xh4HX3n6qDW-172" style="edgeStyle=orthogonalEdgeStyle;rounded=0;orthogonalLoop=1;jettySize=auto;html=1;fontSize=13;startArrow=none;startFill=0;" edge="1" parent="1" source="r3yZTHQa6Xh4HX3n6qDW-173" target="r3yZTHQa6Xh4HX3n6qDW-168">
          <mxGeometry relative="1" as="geometry" />
        </mxCell>
        <mxCell id="r3yZTHQa6Xh4HX3n6qDW-173" value="银行业务&lt;br style=&quot;font-size: 13px&quot;&gt;" style="shape=mxgraph.cisco.servers.file_server;html=1;pointerEvents=1;dashed=0;fillColor=#036897;strokeColor=#ffffff;strokeWidth=2;verticalLabelPosition=bottom;verticalAlign=top;align=center;outlineConnect=0;fontSize=13;" vertex="1" parent="1">
          <mxGeometry x="543.78" y="428.5" width="43" height="58" as="geometry" />
        </mxCell>
        <mxCell id="r3yZTHQa6Xh4HX3n6qDW-174" style="edgeStyle=orthogonalEdgeStyle;rounded=0;orthogonalLoop=1;jettySize=auto;html=1;entryX=0;entryY=0.5;entryDx=0;entryDy=0;entryPerimeter=0;fontSize=13;startArrow=none;startFill=0;" edge="1" parent="1" source="r3yZTHQa6Xh4HX3n6qDW-175" target="r3yZTHQa6Xh4HX3n6qDW-168">
          <mxGeometry relative="1" as="geometry" />
        </mxCell>
        <mxCell id="r3yZTHQa6Xh4HX3n6qDW-175" value="银行业务&lt;br style=&quot;font-size: 13px&quot;&gt;" style="shape=mxgraph.cisco.servers.file_server;html=1;pointerEvents=1;dashed=0;fillColor=#036897;strokeColor=#ffffff;strokeWidth=2;verticalLabelPosition=bottom;verticalAlign=top;align=center;outlineConnect=0;fontSize=13;" vertex="1" parent="1">
          <mxGeometry x="543.78" y="570" width="43" height="58" as="geometry" />
        </mxCell>
        <mxCell id="r3yZTHQa6Xh4HX3n6qDW-176" style="edgeStyle=orthogonalEdgeStyle;rounded=0;orthogonalLoop=1;jettySize=auto;html=1;entryX=0.5;entryY=0;entryDx=0;entryDy=0;entryPerimeter=0;" edge="1" parent="1" source="r3yZTHQa6Xh4HX3n6qDW-177" target="r3yZTHQa6Xh4HX3n6qDW-192">
          <mxGeometry relative="1" as="geometry">
            <Array as="points">
              <mxPoint x="1180.65" y="690" />
              <mxPoint x="919.65" y="690" />
              <mxPoint x="919.65" y="875" />
            </Array>
          </mxGeometry>
        </mxCell>
        <mxCell id="r3yZTHQa6Xh4HX3n6qDW-177" value="鲁明大厦&lt;br&gt;192.168.166.1" style="shape=mxgraph.cisco.routers.router;html=1;pointerEvents=1;dashed=0;fillColor=#036897;strokeColor=#ffffff;strokeWidth=2;verticalLabelPosition=bottom;verticalAlign=top;align=center;outlineConnect=0;fontSize=13;" vertex="1" parent="1">
          <mxGeometry x="1142.65" y="428.5" width="76" height="50" as="geometry" />
        </mxCell>
        <mxCell id="r3yZTHQa6Xh4HX3n6qDW-178" style="edgeStyle=orthogonalEdgeStyle;rounded=0;orthogonalLoop=1;jettySize=auto;html=1;entryX=0;entryY=0.5;entryDx=0;entryDy=0;entryPerimeter=0;" edge="1" parent="1" source="r3yZTHQa6Xh4HX3n6qDW-181" target="r3yZTHQa6Xh4HX3n6qDW-190">
          <mxGeometry relative="1" as="geometry" />
        </mxCell>
        <mxCell id="r3yZTHQa6Xh4HX3n6qDW-179" style="edgeStyle=orthogonalEdgeStyle;rounded=0;orthogonalLoop=1;jettySize=auto;html=1;entryX=0;entryY=0.5;entryDx=0;entryDy=0;entryPerimeter=0;" edge="1" parent="1" source="r3yZTHQa6Xh4HX3n6qDW-181" target="r3yZTHQa6Xh4HX3n6qDW-188">
          <mxGeometry relative="1" as="geometry" />
        </mxCell>
        <mxCell id="r3yZTHQa6Xh4HX3n6qDW-180" style="edgeStyle=orthogonalEdgeStyle;rounded=0;orthogonalLoop=1;jettySize=auto;html=1;entryX=0;entryY=0.5;entryDx=0;entryDy=0;entryPerimeter=0;" edge="1" parent="1" source="r3yZTHQa6Xh4HX3n6qDW-181" target="r3yZTHQa6Xh4HX3n6qDW-192">
          <mxGeometry relative="1" as="geometry" />
        </mxCell>
        <mxCell id="r3yZTHQa6Xh4HX3n6qDW-181" value="鲁明大厦&lt;br&gt;办公华为主路由&lt;br&gt;192.168.9.1" style="shape=mxgraph.cisco.routers.router;html=1;pointerEvents=1;dashed=0;fillColor=#036897;strokeColor=#ffffff;strokeWidth=2;verticalLabelPosition=bottom;verticalAlign=top;align=center;outlineConnect=0;fontSize=13;" vertex="1" parent="1">
          <mxGeometry x="759.65" y="1087.5" width="78" height="53" as="geometry" />
        </mxCell>
        <mxCell id="r3yZTHQa6Xh4HX3n6qDW-182" value="&lt;font style=&quot;font-size: 23px&quot;&gt;不连外网&lt;/font&gt;" style="text;html=1;align=center;verticalAlign=middle;resizable=0;points=[];autosize=1;strokeColor=none;" vertex="1" parent="1">
          <mxGeometry x="877.65" y="160" width="110" height="20" as="geometry" />
        </mxCell>
        <mxCell id="r3yZTHQa6Xh4HX3n6qDW-183" style="edgeStyle=orthogonalEdgeStyle;rounded=0;orthogonalLoop=1;jettySize=auto;html=1;entryX=0;entryY=0.5;entryDx=0;entryDy=0;entryPerimeter=0;" edge="1" parent="1" source="r3yZTHQa6Xh4HX3n6qDW-184" target="r3yZTHQa6Xh4HX3n6qDW-181">
          <mxGeometry relative="1" as="geometry" />
        </mxCell>
        <mxCell id="r3yZTHQa6Xh4HX3n6qDW-184" value="电信" style="shape=mxgraph.cisco.routers.router;html=1;pointerEvents=1;dashed=0;fillColor=#036897;strokeColor=#ffffff;strokeWidth=2;verticalLabelPosition=bottom;verticalAlign=top;align=center;outlineConnect=0;fontSize=13;" vertex="1" parent="1">
          <mxGeometry x="565.94" y="1005" width="78" height="53" as="geometry" />
        </mxCell>
        <mxCell id="r3yZTHQa6Xh4HX3n6qDW-185" style="edgeStyle=orthogonalEdgeStyle;rounded=0;orthogonalLoop=1;jettySize=auto;html=1;entryX=0;entryY=0.5;entryDx=0;entryDy=0;entryPerimeter=0;" edge="1" parent="1" source="r3yZTHQa6Xh4HX3n6qDW-186" target="r3yZTHQa6Xh4HX3n6qDW-181">
          <mxGeometry relative="1" as="geometry" />
        </mxCell>
        <mxCell id="r3yZTHQa6Xh4HX3n6qDW-186" value="联通" style="shape=mxgraph.cisco.routers.router;html=1;pointerEvents=1;dashed=0;fillColor=#036897;strokeColor=#ffffff;strokeWidth=2;verticalLabelPosition=bottom;verticalAlign=top;align=center;outlineConnect=0;fontSize=13;" vertex="1" parent="1">
          <mxGeometry x="565.94" y="1165" width="78" height="53" as="geometry" />
        </mxCell>
        <mxCell id="r3yZTHQa6Xh4HX3n6qDW-187" style="edgeStyle=orthogonalEdgeStyle;rounded=0;orthogonalLoop=1;jettySize=auto;html=1;entryX=0;entryY=0.563;entryDx=0;entryDy=0;entryPerimeter=0;" edge="1" parent="1" source="r3yZTHQa6Xh4HX3n6qDW-188" target="r3yZTHQa6Xh4HX3n6qDW-161">
          <mxGeometry relative="1" as="geometry" />
        </mxCell>
        <mxCell id="r3yZTHQa6Xh4HX3n6qDW-188" value="五楼子路由&lt;br&gt;192.168.8.1" style="shape=mxgraph.cisco.routers.router;html=1;pointerEvents=1;dashed=0;fillColor=#036897;strokeColor=#ffffff;strokeWidth=2;verticalLabelPosition=bottom;verticalAlign=top;align=center;outlineConnect=0;fontSize=13;" vertex="1" parent="1">
          <mxGeometry x="893.65" y="1284" width="52" height="25" as="geometry" />
        </mxCell>
        <mxCell id="r3yZTHQa6Xh4HX3n6qDW-189" style="edgeStyle=orthogonalEdgeStyle;rounded=0;orthogonalLoop=1;jettySize=auto;html=1;entryX=0.007;entryY=0.412;entryDx=0;entryDy=0;entryPerimeter=0;" edge="1" parent="1" source="r3yZTHQa6Xh4HX3n6qDW-190" target="r3yZTHQa6Xh4HX3n6qDW-162">
          <mxGeometry relative="1" as="geometry" />
        </mxCell>
        <mxCell id="r3yZTHQa6Xh4HX3n6qDW-190" value="六楼子路由&lt;br&gt;192.168.9.1" style="shape=mxgraph.cisco.routers.router;html=1;pointerEvents=1;dashed=0;fillColor=#036897;strokeColor=#ffffff;strokeWidth=2;verticalLabelPosition=bottom;verticalAlign=top;align=center;outlineConnect=0;fontSize=13;" vertex="1" parent="1">
          <mxGeometry x="894.6499999999999" y="1016.5" width="50" height="30" as="geometry" />
        </mxCell>
        <mxCell id="r3yZTHQa6Xh4HX3n6qDW-191" style="edgeStyle=orthogonalEdgeStyle;rounded=0;orthogonalLoop=1;jettySize=auto;html=1;entryX=0;entryY=0.5;entryDx=0;entryDy=0;" edge="1" parent="1" source="r3yZTHQa6Xh4HX3n6qDW-192" target="r3yZTHQa6Xh4HX3n6qDW-193">
          <mxGeometry relative="1" as="geometry" />
        </mxCell>
        <mxCell id="r3yZTHQa6Xh4HX3n6qDW-192" value="技术部&lt;br&gt;专用软路由&lt;br&gt;192.168.7.1&lt;br&gt;192.168.166.1" style="shape=mxgraph.cisco.routers.router;html=1;pointerEvents=1;dashed=0;fillColor=#036897;strokeColor=#ffffff;strokeWidth=2;verticalLabelPosition=bottom;verticalAlign=top;align=center;outlineConnect=0;fontSize=13;" vertex="1" parent="1">
          <mxGeometry x="893.6499999999999" y="875" width="44.15" height="30" as="geometry" />
        </mxCell>
        <mxCell id="r3yZTHQa6Xh4HX3n6qDW-193" value="" style="rounded=0;whiteSpace=wrap;html=1;" vertex="1" parent="1">
          <mxGeometry x="984.65" y="856" width="300" height="68" as="geometry" />
        </mxCell>
        <mxCell id="r3yZTHQa6Xh4HX3n6qDW-194" value="办公电脑" style="shape=mxgraph.cisco.computers_and_peripherals.ibm_mini_as400;html=1;pointerEvents=1;dashed=0;fillColor=#036897;strokeColor=#ffffff;strokeWidth=2;verticalLabelPosition=bottom;verticalAlign=top;align=center;outlineConnect=0;fontSize=13;" vertex="1" parent="1">
          <mxGeometry x="1050.65" y="1269" width="40" height="40" as="geometry" />
        </mxCell>
        <mxCell id="r3yZTHQa6Xh4HX3n6qDW-195" value="办公电脑" style="shape=mxgraph.cisco.computers_and_peripherals.ibm_mini_as400;html=1;pointerEvents=1;dashed=0;fillColor=#036897;strokeColor=#ffffff;strokeWidth=2;verticalLabelPosition=bottom;verticalAlign=top;align=center;outlineConnect=0;fontSize=13;" vertex="1" parent="1">
          <mxGeometry x="1114.65" y="1269" width="40" height="40" as="geometry" />
        </mxCell>
        <mxCell id="r3yZTHQa6Xh4HX3n6qDW-196" value="办公电脑" style="shape=mxgraph.cisco.computers_and_peripherals.ibm_mini_as400;html=1;pointerEvents=1;dashed=0;fillColor=#036897;strokeColor=#ffffff;strokeWidth=2;verticalLabelPosition=bottom;verticalAlign=top;align=center;outlineConnect=0;fontSize=13;" vertex="1" parent="1">
          <mxGeometry x="1190.65" y="1269" width="40" height="40" as="geometry" />
        </mxCell>
        <mxCell id="r3yZTHQa6Xh4HX3n6qDW-197" value="开发电脑" style="shape=mxgraph.cisco.computers_and_peripherals.ibm_mini_as400;html=1;pointerEvents=1;dashed=0;fillColor=#036897;strokeColor=#ffffff;strokeWidth=2;verticalLabelPosition=bottom;verticalAlign=top;align=center;outlineConnect=0;fontSize=13;" vertex="1" parent="1">
          <mxGeometry x="1027.65" y="865" width="37" height="35" as="geometry" />
        </mxCell>
        <mxCell id="r3yZTHQa6Xh4HX3n6qDW-198" value="运维电脑" style="shape=mxgraph.cisco.computers_and_peripherals.ibm_mini_as400;html=1;pointerEvents=1;dashed=0;fillColor=#036897;strokeColor=#ffffff;strokeWidth=2;verticalLabelPosition=bottom;verticalAlign=top;align=center;outlineConnect=0;fontSize=13;" vertex="1" parent="1">
          <mxGeometry x="1132.15" y="865" width="37" height="35" as="geometry" />
        </mxCell>
        <mxCell id="r3yZTHQa6Xh4HX3n6qDW-199" value="办公电脑" style="shape=mxgraph.cisco.computers_and_peripherals.ibm_mini_as400;html=1;pointerEvents=1;dashed=0;fillColor=#036897;strokeColor=#ffffff;strokeWidth=2;verticalLabelPosition=bottom;verticalAlign=top;align=center;outlineConnect=0;fontSize=13;" vertex="1" parent="1">
          <mxGeometry x="1010.65" y="1018" width="40" height="40" as="geometry" />
        </mxCell>
        <mxCell id="r3yZTHQa6Xh4HX3n6qDW-200" value="办公电脑" style="shape=mxgraph.cisco.computers_and_peripherals.ibm_mini_as400;html=1;pointerEvents=1;dashed=0;fillColor=#036897;strokeColor=#ffffff;strokeWidth=2;verticalLabelPosition=bottom;verticalAlign=top;align=center;outlineConnect=0;fontSize=13;" vertex="1" parent="1">
          <mxGeometry x="1087.65" y="1011.5" width="40" height="40" as="geometry" />
        </mxCell>
        <mxCell id="r3yZTHQa6Xh4HX3n6qDW-201" value="办公电脑" style="shape=mxgraph.cisco.computers_and_peripherals.ibm_mini_as400;html=1;pointerEvents=1;dashed=0;fillColor=#036897;strokeColor=#ffffff;strokeWidth=2;verticalLabelPosition=bottom;verticalAlign=top;align=center;outlineConnect=0;fontSize=13;" vertex="1" parent="1">
          <mxGeometry x="1178.65" y="1011.5" width="40" height="40" as="geometry" />
        </mxCell>
        <mxCell id="r3yZTHQa6Xh4HX3n6qDW-202" value="&lt;font style=&quot;font-size: 20px;&quot;&gt;ISP&lt;/font&gt;" style="text;html=1;align=center;verticalAlign=middle;resizable=0;points=[];autosize=1;strokeColor=none;fontSize=20;" vertex="1" parent="1">
          <mxGeometry x="579.9399999999999" y="1255" width="50" height="30" as="geometry" />
        </mxCell>
        <mxCell id="r3yZTHQa6Xh4HX3n6qDW-203" value="" style="endArrow=none;html=1;fontSize=20;" edge="1" parent="1">
          <mxGeometry width="50" height="50" relative="1" as="geometry">
            <mxPoint x="369.65" y="950" as="sourcePoint" />
            <mxPoint x="1509.65" y="950" as="targetPoint" />
          </mxGeometry>
        </mxCell>
        <mxCell id="r3yZTHQa6Xh4HX3n6qDW-204" value="" style="group" vertex="1" connectable="0" parent="1">
          <mxGeometry x="924.65" y="270" width="120" height="360" as="geometry" />
        </mxCell>
        <mxCell id="r3yZTHQa6Xh4HX3n6qDW-205" value="" style="group" vertex="1" connectable="0" parent="r3yZTHQa6Xh4HX3n6qDW-204">
          <mxGeometry width="120" height="360" as="geometry" />
        </mxCell>
        <mxCell id="r3yZTHQa6Xh4HX3n6qDW-206" value="" style="rounded=0;whiteSpace=wrap;html=1;fontSize=13;" vertex="1" parent="r3yZTHQa6Xh4HX3n6qDW-205">
          <mxGeometry width="120" height="360" as="geometry" />
        </mxCell>
        <mxCell id="r3yZTHQa6Xh4HX3n6qDW-207" value="esxi" style="text;html=1;strokeColor=none;fillColor=none;align=center;verticalAlign=middle;whiteSpace=wrap;rounded=0;" vertex="1" parent="r3yZTHQa6Xh4HX3n6qDW-205">
          <mxGeometry x="33.33333333333333" y="2" width="53.33333333333333" height="20" as="geometry" />
        </mxCell>
        <mxCell id="r3yZTHQa6Xh4HX3n6qDW-208" value="公司B前置机&lt;br style=&quot;font-size: 13px&quot;&gt;&lt;span style=&quot;font-size: 12px&quot;&gt;172.172.46.2&lt;/span&gt;" style="shape=mxgraph.cisco.computers_and_peripherals.ibm_mini_as400;html=1;pointerEvents=1;dashed=0;fillColor=#036897;strokeColor=#ffffff;strokeWidth=2;verticalLabelPosition=bottom;verticalAlign=top;align=center;outlineConnect=0;fontSize=13;" vertex="1" parent="r3yZTHQa6Xh4HX3n6qDW-205">
          <mxGeometry x="33.33333333333333" y="160" width="53.33333333333333" height="40" as="geometry" />
        </mxCell>
        <mxCell id="r3yZTHQa6Xh4HX3n6qDW-209" value="&lt;font style=&quot;font-size: 12px&quot;&gt;公司A前置机&lt;br&gt;ip:172.172.46.1&lt;br&gt;网关192.168.25.30&lt;br&gt;&lt;/font&gt;&lt;span style=&quot;font-size: 12px&quot;&gt;&lt;br&gt;&lt;/span&gt;" style="shape=mxgraph.cisco.computers_and_peripherals.ibm_mini_as400;html=1;pointerEvents=1;dashed=0;fillColor=#036897;strokeColor=#ffffff;strokeWidth=2;verticalLabelPosition=bottom;verticalAlign=top;align=center;outlineConnect=0;fontSize=13;" vertex="1" parent="r3yZTHQa6Xh4HX3n6qDW-204">
          <mxGeometry x="40" y="60" width="40" height="40" as="geometry" />
        </mxCell>
      </root>
    </mxGraphModel>
  </diagram>
</mxfile>
